<?xml version="1.0" standalone="no"?>
<!DOCTYPE svg PUBLIC "-//W3C//DTD SVG 20010904//EN"
 "http://www.w3.org/TR/2001/REC-SVG-20010904/DTD/svg10.dtd">
<svg version="1.0" xmlns="http://www.w3.org/2000/svg"
 width="1635.000000pt" height="1635.000000pt" viewBox="0 0 1635.000000 1635.000000"
 preserveAspectRatio="xMidYMid meet">
<metadata>
Created by potrace 1.14, written by Peter Selinger 2001-2017
</metadata>
<g transform="translate(0.000000,1635.000000) scale(0.100000,-0.100000)"
fill="#000000" stroke="none">
<path d="M4337 9348 c-515 -1016 -1407 -2787 -1407 -2793 0 -3 63 -4 141 -3
l141 3 820 1625 c451 894 823 1631 825 1638 4 9 -27 12 -135 12 l-141 0 -244
-482z"/>
<path d="M5174 9675 c-218 -47 -356 -233 -325 -436 19 -118 72 -203 154 -244
67 -33 170 -35 252 -4 118 44 201 144 176 212 -14 37 -35 34 -62 -10 -60 -101
-126 -143 -224 -143 -80 0 -124 17 -158 62 -60 79 -77 226 -36 314 31 65 99
129 167 155 52 21 76 24 290 27 l232 4 0 -1431 0 -1431 210 0 210 0 2 223 3
222 17 -55 c37 -118 111 -214 219 -286 139 -92 292 -135 484 -135 153 -1 241
19 370 81 417 203 688 836 637 1487 -18 236 -52 387 -131 584 -103 254 -278
470 -508 623 -151 99 -294 155 -473 182 -133 20 -1414 19 -1506 -1z m1429 -99
c135 -40 229 -95 342 -198 201 -184 365 -567 421 -988 16 -124 18 -391 4 -544
-15 -154 -55 -383 -90 -510 -71 -254 -189 -423 -350 -500 -56 -26 -78 -31
-165 -34 -129 -5 -225 15 -334 69 -188 93 -305 280 -288 462 7 75 55 176 104
216 76 63 189 65 312 6 57 -28 72 -31 86 -21 48 35 -23 104 -135 132 -130 33
-241 6 -338 -81 -43 -38 -58 -64 -100 -165 -8 -18 -11 307 -11 1084 l-1 1108
228 -4 c209 -5 234 -7 315 -32z"/>
<path d="M8233 9675 c-132 -29 -241 -114 -300 -233 -24 -49 -28 -69 -28 -142
1 -146 56 -254 156 -304 98 -49 245 -30 342 45 62 47 87 86 87 137 0 52 -25
68 -49 33 -94 -132 -135 -160 -231 -161 -109 0 -186 64 -216 179 -28 110 -3
202 73 276 86 84 173 105 441 105 l192 0 0 -1430 0 -1430 208 2 207 3 5 545 5
546 184 217 c101 119 191 217 200 217 9 0 43 -13 76 -28 87 -42 163 -128 225
-255 53 -109 74 -179 170 -547 85 -329 137 -442 262 -575 42 -44 91 -84 128
-104 192 -103 487 -69 629 71 69 69 124 178 89 178 -6 0 -46 -35 -88 -78 -92
-94 -149 -125 -241 -130 -74 -5 -125 15 -170 65 -68 76 -96 154 -153 433 -72
356 -158 641 -228 756 -72 119 -206 227 -333 267 -56 18 -94 22 -192 22 -105
0 -120 2 -110 15 113 142 741 861 815 932 102 99 257 209 355 252 63 28 149
46 223 46 72 0 104 13 104 44 0 42 -22 50 -118 43 -111 -8 -186 -29 -289 -79
-113 -55 -211 -125 -322 -233 -52 -49 -347 -385 -655 -745 l-561 -655 -3 858
-2 857 -413 -1 c-307 0 -428 -4 -474 -14z"/>
<path d="M11516 9674 c-130 -31 -241 -119 -294 -232 -23 -49 -27 -70 -27 -152
0 -81 4 -103 26 -150 36 -77 80 -124 141 -150 44 -19 65 -22 134 -18 102 5
172 37 238 108 44 47 47 53 44 98 -5 70 -25 66 -88 -19 -62 -83 -106 -109
-190 -109 -138 0 -225 100 -225 260 0 87 17 129 76 190 93 95 165 110 551 110
l298 0 2 -1427 3 -1428 208 -3 207 -2 0 1430 0 1430 420 0 420 0 0 40 0 40
-942 -1 c-778 -1 -953 -3 -1002 -15z"/>
<path d="M1585 8484 c-533 -250 -973 -458 -977 -462 -5 -5 1848 -874 1936
-908 14 -5 16 10 16 127 l-1 134 -728 320 c-401 176 -726 323 -723 327 4 3
332 151 730 329 l722 322 0 134 c0 73 -1 133 -2 133 -2 0 -439 -206 -973 -456z"/>
<path d="M13780 8806 l0 -133 725 -324 c399 -178 725 -326 725 -329 0 -4 -326
-150 -725 -326 l-725 -319 0 -133 c0 -81 4 -132 10 -130 62 21 1946 905 1942
910 -6 6 -1807 854 -1909 899 l-43 18 0 -133z"/>
</g>
</svg>
