<svg width="87" height="20" viewBox="0 0 87 20" fill="none" xmlns="http://www.w3.org/2000/svg">
    <path
        d="M11.904 16.008L0.696 10.8L11.904 5.544V7.08L3.576 10.8L11.904 14.472V16.008ZM13.9337 19.176L23.3657 0.48H24.9977L15.5657 19.176H13.9337ZM31.788 18L29.388 18.024V1.752H27.564C26.812 1.752 26.252 1.92 25.884 2.256C25.516 2.592 25.332 2.992 25.332 3.456C25.332 3.904 25.436 4.272 25.644 4.56C25.852 4.832 26.14 4.968 26.508 4.968C26.892 4.968 27.18 4.88 27.372 4.704C27.58 4.528 27.724 4.352 27.804 4.176C27.9 4 27.996 3.912 28.092 3.912C28.188 3.912 28.236 4.032 28.236 4.272C28.236 4.512 28.052 4.768 27.684 5.04C27.332 5.296 26.916 5.424 26.436 5.424C25.956 5.424 25.572 5.24 25.284 4.872C24.996 4.504 24.852 4.048 24.852 3.504C24.852 2.944 25.084 2.44 25.548 1.992C26.028 1.528 26.708 1.296 27.588 1.296H34.164C35.7 1.296 37.044 1.712 38.196 2.544C39.364 3.36 40.236 4.432 40.812 5.76C41.388 7.072 41.676 8.528 41.676 10.128C41.676 12.304 41.148 14.2 40.092 15.816C39.052 17.416 37.668 18.216 35.94 18.216C34.852 18.216 33.916 17.952 33.132 17.424C32.348 16.896 31.9 16.176 31.788 15.264V18ZM38.964 13.512C39.108 12.728 39.196 12.104 39.228 11.64C39.26 11.16 39.276 10.56 39.276 9.84C39.276 9.12 39.164 8.28 38.94 7.32C38.716 6.344 38.38 5.432 37.932 4.584C37.5 3.736 36.9 3.056 36.132 2.544C35.38 2.032 34.516 1.776 33.54 1.776H31.788V14.568C31.852 13.96 32.076 13.504 32.46 13.2C32.86 12.88 33.26 12.72 33.66 12.72C34.076 12.72 34.436 12.792 34.74 12.936C35.06 13.08 35.22 13.224 35.22 13.368C35.22 13.432 35.188 13.496 35.124 13.56C35.076 13.608 35.028 13.632 34.98 13.632C34.948 13.632 34.812 13.56 34.572 13.416C34.332 13.272 34.004 13.2 33.588 13.2C33.172 13.2 32.844 13.384 32.604 13.752C32.364 14.104 32.244 14.472 32.244 14.856C32.244 15.624 32.564 16.296 33.204 16.872C33.86 17.448 34.708 17.736 35.748 17.736C36.372 17.736 36.916 17.52 37.38 17.088C37.844 16.64 38.188 16.128 38.412 15.552C38.652 14.96 38.836 14.28 38.964 13.512ZM57.7226 18.24C56.8426 18.24 56.1306 17.952 55.5866 17.376C55.0426 16.8 54.6426 16.096 54.3866 15.264C54.1466 14.416 53.9226 13.568 53.7146 12.72C53.2026 10.608 52.4026 9.472 51.3146 9.312L49.1786 11.832V18H46.7786V1.776H44.9546C44.2026 1.776 43.6426 1.944 43.2746 2.28C42.9066 2.6 42.7226 2.984 42.7226 3.432C42.7226 3.88 42.8346 4.248 43.0586 4.536C43.2826 4.808 43.5786 4.944 43.9466 4.944C44.3306 4.944 44.6106 4.856 44.7866 4.68C44.9626 4.504 45.0986 4.336 45.1946 4.176C45.2906 4 45.3866 3.912 45.4826 3.912C45.5786 3.912 45.6266 4.032 45.6266 4.272C45.6266 4.512 45.4426 4.768 45.0746 5.04C44.7226 5.296 44.3066 5.424 43.8266 5.424C43.3466 5.424 42.9626 5.24 42.6746 4.872C42.3866 4.504 42.2426 4.048 42.2426 3.504C42.2426 2.944 42.4746 2.44 42.9386 1.992C43.4186 1.528 44.0986 1.296 44.9786 1.296H49.1786V11.064L55.1786 4.056C56.7466 2.216 58.2986 1.296 59.8346 1.296C60.1386 1.296 60.2906 1.368 60.2906 1.512C60.2906 1.704 60.1946 1.8 60.0026 1.8C59.5866 1.8 59.2106 1.84 58.8746 1.92C58.5386 1.984 58.0586 2.224 57.4346 2.64C56.8106 3.056 56.1706 3.648 55.5146 4.416L51.6746 8.904C51.9946 8.872 52.2346 8.856 52.3946 8.856C53.2106 8.856 53.8986 9.08 54.4586 9.528C55.0346 9.96 55.4426 10.504 55.6826 11.16C55.9226 11.8 56.1386 12.504 56.3306 13.272C56.5226 14.04 56.6746 14.752 56.7866 15.408C57.0586 16.928 57.5946 17.688 58.3946 17.688C58.7306 17.688 59.0426 17.592 59.3306 17.4C59.6186 17.192 59.8426 16.984 60.0026 16.776C60.1626 16.568 60.2746 16.464 60.3386 16.464C60.4026 16.464 60.4346 16.504 60.4346 16.584C60.4346 16.648 60.4106 16.728 60.3626 16.824C59.8826 17.768 59.0026 18.24 57.7226 18.24ZM69.0763 18H66.7003V1.776H63.6523C62.9003 1.776 62.3403 1.944 61.9723 2.28C61.6043 2.6 61.4203 2.984 61.4203 3.432C61.4203 3.864 61.5323 4.224 61.7563 4.512C61.9803 4.8 62.2763 4.944 62.6443 4.944C63.0283 4.944 63.3083 4.856 63.4843 4.68C63.6603 4.504 63.7963 4.336 63.8923 4.176C63.9883 4 64.0843 3.912 64.1803 3.912C64.2763 3.912 64.3243 4.032 64.3243 4.272C64.3243 4.512 64.1403 4.768 63.7723 5.04C63.4203 5.296 63.0043 5.424 62.5243 5.424C62.0443 5.424 61.6603 5.24 61.3723 4.872C61.0843 4.504 60.9403 4.048 60.9403 3.504C60.9403 2.944 61.1723 2.44 61.6363 1.992C62.1163 1.528 62.7963 1.296 63.6763 1.296H73.8763V1.776H69.0763V18ZM86.8534 10.8L75.6454 16.008V14.472L83.9734 10.8L75.6454 7.08V5.544L86.8534 10.8Z"
        fill="black" />
</svg>